<svg width="80" height="80" viewBox="0 0 80 80" fill="none" xmlns="http://www.w3.org/2000/svg">
    <rect width="80" height="80" rx="8" fill="#fff"/>
    <path fill="#D9D9D9" d="M6 73h68v2H6z"/>
    <path d="m74 47.883-4-4.02v-5.628L41.164 67.92 37 72.5l-2.432-2.675L8 42.687 10.745 40l25.707 26.26L66.8 35.02h-6.4L57.2 31H74v16.883z" fill="#FF9055"/>
    <path fill-rule="evenodd" clip-rule="evenodd" d="M43.343 19.333a10.336 10.336 0 0 0-7.33-3.038c-2.863 0-5.457 1.16-7.333 3.038a10.342 10.342 0 0 0-3.036 7.331 10.34 10.34 0 0 0 3.036 7.332 10.34 10.34 0 0 0 7.332 3.038 10.33 10.33 0 0 0 7.331-3.038 10.338 10.338 0 0 0 3.038-7.332c0-2.864-1.16-5.455-3.038-7.33zM51.93 16.628a.56.56 0 0 1 .764.206.557.557 0 0 1-.206.763l-4.023 2.322a.56.56 0 0 1-.558-.97l4.022-2.323v.002zm2.838 9.474a.562.562 0 1 1 0 1.124h-4.645a.56.56 0 1 1 0-1.124h4.645zm-2.282 9.63a.56.56 0 1 1-.558.97l-4.023-2.324a.56.56 0 0 1 .558-.971l4.023 2.323v.002zM45.7 42.929a.56.56 0 0 1-.205.765.562.562 0 0 1-.765-.206l-2.323-4.023a.56.56 0 1 1 .97-.558l2.322 4.022zM35.102 7.562a.562.562 0 1 1 1.124 0v4.645a.562.562 0 1 1-1.124 0V7.562zm1.124 38.206a.562.562 0 1 1-1.124 0v-4.645a.562.562 0 1 1 1.124 0v4.645zm-9.629-2.28a.56.56 0 0 1-.97-.557l2.323-4.024a.56.56 0 1 1 .97.558l-2.324 4.023h.001zM19.398 36.7a.561.561 0 0 1-.558-.97l4.023-2.324a.561.561 0 0 1 .558.97l-4.023 2.324zm-2.836-9.475a.562.562 0 1 1 0-1.124h4.645a.562.562 0 1 1 0 1.124h-4.645zm2.28-9.627a.56.56 0 1 1 .557-.971l4.022 2.322a.56.56 0 1 1-.558.97L18.84 17.6h.002zm6.786-7.199a.56.56 0 1 1 .97-.558l2.323 4.022a.56.56 0 0 1-.971.557l-2.323-4.023.001.002zm19.102-.558a.56.56 0 1 1 .971.556l-2.321 4.023a.56.56 0 0 1-.971-.557l2.323-4.022h-.002z" fill="#FFBE31"/>
</svg>
