<svg width="80" height="80" viewBox="0 0 80 80" fill="none" xmlns="http://www.w3.org/2000/svg">
    <rect width="80" height="80" rx="8" fill="#fff"/>
    <path fill-rule="evenodd" clip-rule="evenodd" d="M45.019 23.502a15.506 15.506 0 0 0-10.997-4.557c-4.295 0-8.186 1.74-11 4.557a15.515 15.515 0 0 0-4.555 10.997 15.51 15.51 0 0 0 4.555 11 15.513 15.513 0 0 0 11 4.557c4.294 0 8.183-1.74 10.997-4.557a15.508 15.508 0 0 0 4.557-11 15.49 15.49 0 0 0-4.557-10.997zM57.9 19.444a.841.841 0 0 1 1.146.31c.232.4.094.915-.31 1.144l-6.034 3.483a.84.84 0 0 1-.837-1.454l6.034-3.486v.003zm4.257 14.212a.843.843 0 1 1 0 1.685H55.19a.84.84 0 0 1-.843-.842.84.84 0 0 1 .843-.843h6.968zM48.554 58.899c.231.4.093.916-.307 1.147a.843.843 0 0 1-1.147-.31l-3.486-6.034a.839.839 0 1 1 1.457-.837l3.483 6.034zM32.656 5.843a.842.842 0 1 1 1.685 0v6.968a.842.842 0 1 1-1.685 0V5.843zm1.685 57.314a.843.843 0 1 1-1.685 0V56.19a.843.843 0 1 1 1.685 0v6.968zm-14.443-3.42a.844.844 0 0 1-1.147.31.841.841 0 0 1-.31-1.145l3.486-6.037a.839.839 0 1 1 1.454.838l-3.486 6.034h.003zm-10.8-10.18a.842.842 0 0 1-1.147-.31.842.842 0 0 1 .31-1.147l6.034-3.486a.842.842 0 0 1 1.147.31c.232.4.091.915-.31 1.147l-6.034 3.485zM4.843 35.34a.842.842 0 1 1 0-1.685h6.968a.842.842 0 1 1 0 1.685H4.843zm3.42-14.44a.839.839 0 1 1 .835-1.457l6.035 3.483a.839.839 0 1 1-.838 1.456L8.261 20.9h.002zm10.18-10.8a.839.839 0 1 1 1.455-.838l3.485 6.035c.232.4.094.915-.31 1.144a.839.839 0 0 1-1.146-.31l-3.486-6.034.003.003zM47.1 9.263a.839.839 0 1 1 1.456.835l-3.483 6.035a.839.839 0 1 1-1.457-.835l3.486-6.035H47.1z" fill="#FFBE31"/>
    <path fill-rule="evenodd" clip-rule="evenodd" d="M68.495 55.289c2.341.424 4.406 1.48 5.91 2.943C76.022 59.799 77 61.832 77 64.04c0 2.466-1.215 4.705-3.172 6.329-1.956 1.623-4.657 2.63-7.627 2.63h-33.4c-2.972 0-5.672-1.009-7.63-2.63C23.217 68.746 22 66.506 22 64.04c0-1.682.57-3.261 1.556-4.613.934-1.279 2.238-2.35 3.787-3.107.081-3.37 1.763-6.416 4.439-8.635C34.525 45.408 38.318 44 42.507 44c1.968 0 3.847.31 5.573.878a15.97 15.97 0 0 1 4.422 2.241 14.6 14.6 0 0 1 1.65-.351l.031-.004a14.825 14.825 0 0 1 2.182-.163c3.173 0 6.064 1.002 8.243 2.644 2.05 1.546 3.467 3.662 3.887 6.046v-.002z" fill="#CBD1DD"/>
</svg>
