<svg width="80" height="80" viewBox="0 0 80 80" fill="none" xmlns="http://www.w3.org/2000/svg">
    <rect width="80" height="80" rx="8" fill="#fff"/>
    <path fill-rule="evenodd" clip-rule="evenodd" d="M70.736 37.706c1.25 0 2.264.969 2.264 2.164 0 1.196-1.014 2.165-2.264 2.165h-2.047l3.504 2.847c.946.77 1.064 2.13.257 3.037-.805.905-2.226 1.014-3.174.244l-7.538-6.128H44.46l12.208 11.667 9.868.762c1.246.096 2.175 1.133 2.079 2.324-.099 1.19-1.186 2.077-2.43 1.987l-4.582-.354 1.434 1.376a2.095 2.095 0 0 1 0 3.06 2.34 2.34 0 0 1-3.2 0l-1.434-1.378.369 4.38c.1 1.191-.833 2.233-2.079 2.325-1.245.094-2.33-.796-2.43-1.987l-.793-9.43-11.264-10.77v15.239l6.41 7.206a2.085 2.085 0 0 1-.257 3.033c-.948.77-2.369.662-3.174-.245l-2.979-3.35v1.956c0 1.195-1.014 2.164-2.264 2.164-1.25 0-2.265-.969-2.265-2.164V67.88l-2.981 3.35c-.805.909-2.228 1.016-3.174.245-.946-.77-1.064-2.128-.257-3.033l6.414-7.206V44.72L25.471 56.39l-.791 9.435c-.101 1.191-1.192 2.081-2.436 1.987-1.24-.096-2.172-1.133-2.072-2.324l.366-4.38-1.434 1.372a2.34 2.34 0 0 1-3.2 0 2.099 2.099 0 0 1 0-3.058l1.434-1.373-4.58.355c-1.245.09-2.33-.797-2.43-1.988-.095-1.188.832-2.232 2.077-2.324l9.869-.762L34.09 42.035H18.93l-7.538 6.128c-.946.77-2.37.661-3.174-.244a2.093 2.093 0 0 1 .257-3.037l3.503-2.847H7.264c-1.25 0-2.264-.97-2.264-2.165s1.014-2.164 2.264-2.164h4.713l-3.503-2.852c-.946-.77-1.064-2.13-.257-3.033.805-.905 2.228-1.014 3.174-.245l7.538 6.13h14.607l-10.318-9.865-9.869-.758c-1.245-.094-2.177-1.133-2.078-2.322.096-1.191 1.186-2.084 2.431-1.988l4.58.35-3.321-3.175a2.089 2.089 0 0 1 0-3.06 2.34 2.34 0 0 1 3.2 0l3.323 3.177-.372-4.374c-.096-1.19.832-2.232 2.078-2.326 1.243-.092 2.335.794 2.43 1.985l.797 9.434L37.68 35.55V20.31l-6.414-7.2a2.087 2.087 0 0 1 .257-3.032c.946-.77 2.37-.662 3.174.241l2.981 3.349V9.164C37.677 7.97 38.692 7 39.942 7c1.25 0 2.264.969 2.264 2.164v4.504l2.98-3.349c.804-.905 2.225-1.014 3.173-.241a2.082 2.082 0 0 1 .257 3.033l-6.41 7.2v13.967l10.318-9.867.796-9.435c.101-1.19 1.186-2.08 2.432-1.987 1.245.092 2.172 1.134 2.078 2.325l-.372 4.377 3.321-3.176c.888-.843 2.32-.843 3.202 0a2.094 2.094 0 0 1 0 3.061l-3.324 3.176 4.583-.354c1.243-.092 2.335.796 2.429 1.985.1 1.19-.833 2.233-2.078 2.324l-9.87.762-10.709 10.24h16.726l7.538-6.131c.948-.766 2.37-.657 3.174.245.807.905.69 2.263-.257 3.033l-3.504 2.852h2.047v-.002z" fill="#C1CCEA"/>
</svg>
