<svg width="80" height="80" viewBox="0 0 80 80" fill="none" xmlns="http://www.w3.org/2000/svg">
    <rect width="80" height="80" rx="8" fill="#fff"/>
    <path d="m47.97 34.895.129.217.016.017.195.324v.001c5.604 9.603 7.225 17.077 6.543 22.595-.67 5.431-3.596 9.199-7.684 11.485l-.027.015-.028.016-.454.273C42.672 71.926 37.921 73 32.504 73c-5.44 0-10.649-1.175-14.683-3.46l-.011-.007-.382-.22c-3.912-2.316-6.692-6.062-7.302-11.413-.64-5.612 1.086-13.225 6.911-23.005h.001L32.504 8.91 47.97 34.895z" stroke="#9BAFCC" stroke-width="4"/>
    <path d="M54.5 54C62.508 54 69 47.508 69 39.5S62.508 25 54.5 25 40 31.492 40 39.5 46.492 54 54.5 54z" fill="#75ACD9"/>
    <path d="M49.353 38.817c1.795 0 3.25-1.712 3.25-3.823 0-2.112-1.455-3.824-3.25-3.824s-3.25 1.712-3.25 3.824c0 2.111 1.455 3.823 3.25 3.823zM59.867 47.992c1.795 0 3.25-1.711 3.25-3.823s-1.455-3.823-3.25-3.823-3.25 1.711-3.25 3.823 1.455 3.823 3.25 3.823zM59.46 31.03 49.376 49.855" stroke="#E9EFF8" stroke-width="2" stroke-linecap="round" stroke-linejoin="round"/>
</svg>
