<svg width="80" height="80" viewBox="0 0 80 80" fill="none" xmlns="http://www.w3.org/2000/svg">
    <rect width="80" height="80" rx="8" fill="#fff"/>
    <path d="M46.39 14.5c5.275 0 9.897 3.387 12.008 8.39l.46 1.093 1.17-.196a9.038 9.038 0 0 1 1.492-.125c5.224 0 9.654 4.574 9.725 10.483l.015 1.247 1.227.213c2.195.383 4.013 2.491 4.013 5.195 0 3.014-2.24 5.26-4.762 5.26h-1.09l.003-.003h-41.1c-4.891 0-9.05-4.324-9.051-9.895 0-5.57 4.157-9.892 9.05-9.892.745 0 1.47.1 2.163.287l1.51.405.343-1.524C35 19.084 40.263 14.5 46.391 14.5z" stroke="#CBD1DD" stroke-width="3"/>
    <path d="M55.499 67h4.815C64.005 67 67 63.782 67 59.817c0-3.571-2.428-6.537-5.611-7.089-.085-7.035-5.418-12.713-11.986-12.713-.631 0-1.254.054-1.858.155-2.473-5.833-7.943-9.89-14.297-9.89-7.388 0-13.583 5.483-15.257 12.864a10.526 10.526 0 0 0-2.725-.36C9.042 42.785 4 48.209 4 54.89c0 6.682 5.044 12.108 11.266 12.108h40.236l-.003.003z" fill="#C0C5CC"/>
</svg>
