<svg width="661" height="368" viewBox="0 0 661 368" fill="none" xmlns="http://www.w3.org/2000/svg">
    <rect y="110.007" width="80.005" height="80.005" rx="8" fill="#fff"/>
    <path fill-rule="evenodd" clip-rule="evenodd" d="M551.823 109.177c-19.151-19.152-45.592-30.992-74.804-30.992-29.212 0-55.674 11.84-74.825 30.992-19.131 19.151-30.972 45.592-30.972 74.804 0 29.212 11.841 55.673 30.972 74.815 19.151 19.151 45.603 30.991 74.825 30.991s55.663-11.84 74.804-30.991c19.152-19.152 30.992-45.593 30.992-74.815 0-29.222-11.84-55.663-30.992-74.804zM629.178 90.096a5.245 5.245 0 0 1 7.151 1.93c1.44 2.5.58 5.7-1.941 7.14l-37.642 21.731c-2.5 1.44-5.71.58-7.15-1.93-1.43-2.5-.57-5.7 1.93-7.14l37.642-21.731h.01zm26.562 88.635c2.9 0 5.26 2.35 5.26 5.26 0 2.91-2.35 5.26-5.26 5.26h-43.463c-2.9 0-5.26-2.34-5.26-5.26s2.35-5.26 5.26-5.26h43.463zm-21.342 90.095c2.501 1.44 3.381 4.641 1.941 7.141-1.441 2.51-4.651 3.38-7.151 1.93l-37.642-21.731c-2.5-1.441-3.38-4.641-1.93-7.151a5.243 5.243 0 0 1 7.15-1.92l37.642 21.731h-.01zm-63.493 67.344a5.243 5.243 0 0 1-1.921 7.151c-2.52 1.43-5.71.57-7.15-1.93l-21.731-37.643c-1.44-2.51-.58-5.71 1.92-7.15a5.23 5.23 0 0 1 7.15 1.94l21.732 37.632zM471.749 5.26c0-2.9 2.35-5.26 5.26-5.26 2.91 0 5.26 2.35 5.26 5.26v43.463c0 2.9-2.36 5.26-5.26 5.26a5.26 5.26 0 0 1-5.26-5.26V5.26zm10.51 357.462c0 2.9-2.35 5.26-5.26 5.26-2.91 0-5.26-2.35-5.26-5.26v-43.463c0-2.9 2.35-5.26 5.26-5.26 2.91 0 5.26 2.35 5.26 5.26v43.463zm-90.085-21.341a5.232 5.232 0 0 1-9.071-5.221l21.732-37.652a5.231 5.231 0 0 1 7.14-1.92 5.226 5.226 0 0 1 1.93 7.15l-21.731 37.643zm-67.344-63.484c-2.5 1.44-5.711.57-7.151-1.93-1.44-2.5-.57-5.711 1.93-7.151l37.643-21.731c2.5-1.44 5.71-.57 7.15 1.93 1.44 2.5.57 5.71-1.93 7.151l-37.642 21.731zm-26.552-88.656a5.26 5.26 0 0 1-5.26-5.26c0-2.91 2.35-5.26 5.26-5.26h43.463c2.9 0 5.26 2.35 5.26 5.26 0 2.91-2.35 5.26-5.26 5.26h-43.463zm21.331-90.075c-2.5-1.44-3.36-4.64-1.92-7.15 1.44-2.5 4.641-3.37 7.141-1.93l37.642 21.721c2.51 1.44 3.38 4.65 1.93 7.15-1.44 2.5-4.64 3.38-7.15 1.93l-37.643-21.731v.01zm63.494-67.354a5.233 5.233 0 1 1 9.071-5.22l21.731 37.642c1.44 2.5.58 5.71-1.92 7.14a5.235 5.235 0 0 1-7.15-1.93l-21.732-37.632zm178.731-5.21a5.232 5.232 0 0 1 7.15-1.93 5.243 5.243 0 0 1 1.931 7.14l-21.732 37.642c-1.44 2.5-4.65 3.37-7.15 1.93-2.5-1.44-3.38-4.64-1.93-7.14l21.731-37.642z" fill="#EF9B7D"/>
    <path fill-rule="evenodd" clip-rule="evenodd" d="M55.048 135.963a21.208 21.208 0 0 0-15.044-6.232 21.218 21.218 0 0 0-15.047 6.232 21.221 21.221 0 0 0-6.23 15.044 21.22 21.22 0 0 0 6.23 15.046 21.215 21.215 0 0 0 15.047 6.233 21.202 21.202 0 0 0 15.044-6.233 21.207 21.207 0 0 0 6.233-15.046 21.2 21.2 0 0 0-6.233-15.044zM70.605 132.126a1.054 1.054 0 0 1 1.438.388 1.05 1.05 0 0 1-.39 1.436l-7.57 4.37a1.053 1.053 0 1 1-1.05-1.824l7.57-4.37h.002zm5.342 17.825a1.058 1.058 0 0 1 0 2.116h-8.741a1.057 1.057 0 1 1 0-2.116h8.74zm-4.292 18.119a1.051 1.051 0 1 1-1.048 1.824l-7.57-4.37a1.053 1.053 0 1 1 1.05-1.824l7.57 4.37h-.002zm-12.77 13.544c.29.503.117 1.148-.386 1.438a1.057 1.057 0 0 1-1.438-.388l-4.37-7.571a1.052 1.052 0 1 1 1.824-1.047l4.37 7.568zm-19.94-66.549a1.058 1.058 0 0 1 2.115 0v8.741a1.059 1.059 0 0 1-2.116 0v-8.741zm2.113 71.888a1.057 1.057 0 1 1-2.115 0v-8.74a1.058 1.058 0 0 1 2.115 0v8.74zm-18.117-4.291a1.052 1.052 0 0 1-1.824-1.05l4.37-7.572a1.053 1.053 0 0 1 1.825 1.051l-4.37 7.571zM9.398 169.894a1.054 1.054 0 0 1-1.438-.388 1.055 1.055 0 0 1 .388-1.438l7.57-4.37a1.054 1.054 0 0 1 1.438.388c.29.503.115 1.148-.388 1.438l-7.57 4.37zm-5.34-17.829a1.058 1.058 0 0 1 0-2.116h8.74a1.058 1.058 0 0 1 0 2.116h-8.74zm4.29-18.115a1.054 1.054 0 0 1 1.05-1.826l7.57 4.368a1.052 1.052 0 1 1-1.05 1.826l-7.57-4.37v.002zm12.77-13.545a1.053 1.053 0 1 1 1.823-1.05l4.37 7.57a1.052 1.052 0 1 1-1.823 1.048l-4.37-7.568zm35.944-1.048a1.052 1.052 0 1 1 1.826 1.048l-4.37 7.57c-.29.503-.936.678-1.439.388a1.051 1.051 0 0 1-.388-1.436l4.37-7.57z" fill="#FF9055"/>
</svg>
