<svg width="80" height="80" viewBox="0 0 80 80" fill="none" xmlns="http://www.w3.org/2000/svg">
    <rect width="80" height="80" rx="8" fill="#fff"/>
    <path d="M73.56 54.9H27.676c-3.504 0-5.693-3.566-3.943-6.417l22.942-37.344c1.75-2.852 6.133-2.852 7.883 0L77.5 48.483c1.754 2.851-.44 6.417-3.943 6.417h.003z" fill="#FFBE31"/>
    <path d="M51 21.431v18.16M50.895 47.013v.237" stroke="#fff" stroke-width="4" stroke-linecap="round" stroke-linejoin="round"/>
    <path d="M31.118 51.093V15.54c0-3.611-3.101-6.539-6.926-6.539-3.824 0-6.925 2.928-6.925 6.539v35.743c-4.023 2.384-6.606 6.734-6.231 11.623.48 6.264 5.668 11.173 12.303 11.636 7.837.549 14.374-5.292 14.374-12.574 0-4.634-2.65-8.682-6.595-10.874z" fill="#fff" stroke="#606060" stroke-width="3" stroke-linecap="round" stroke-linejoin="round"/>
    <path d="M24.31 67.407c3.27 0 5.92-2.502 5.92-5.589 0-3.087-2.65-5.589-5.92-5.589-3.269 0-5.92 2.502-5.92 5.59 0 3.086 2.651 5.588 5.92 5.588z" fill="#fff" stroke="#606060" stroke-width="3" stroke-linecap="round" stroke-linejoin="round"/>
    <path d="M24.31 36.936v19.295" stroke="#606060" stroke-width="3" stroke-linecap="round" stroke-linejoin="round"/>
</svg>
