<svg width="80" height="80" viewBox="0 0 80 80" fill="none" xmlns="http://www.w3.org/2000/svg">
    <rect width="80" height="80" rx="8" fill="#fff"/>
    <path fill-rule="evenodd" clip-rule="evenodd" d="M63.098 50.641 59.76 45l-3.338 5.641c-2.312 3.904-1.506 6.299.294 7.31.855.487 1.936.727 3.044.727 1.107 0 2.097-.222 2.939-.668l.099-.06c1.787-1.005 2.593-3.36.367-7.197l-.065-.109-.002-.003zM53.098 62.641 49.76 57l-3.338 5.641c-2.312 3.904-1.506 6.298.294 7.31.855.487 1.936.727 3.044.727 1.107 0 2.097-.222 2.939-.668l.099-.06c1.788-1.005 2.593-3.36.367-7.197l-.065-.109-.002-.003z" fill="#9BAFCC"/>
    <path d="M59.519 45h4.723a6.559 6.559 0 0 0 1.054-13.03c-.083-6.424-5.314-11.609-11.757-11.609-.62 0-1.23.05-1.823.141-2.426-5.325-7.792-9.03-14.025-9.03-7.247 0-13.324 5.006-14.966 11.746a11.045 11.045 0 0 0-2.673-.328C13.946 22.89 9 27.841 9 33.942c0 6.1 4.948 11.055 11.052 11.055h39.47l-.003.003z" fill="#9BAFCC"/>
    <path d="M71.927 33.3a8.736 8.736 0 0 0-6.823-15.447C64.324 11.733 59.1 7 52.768 7a12.406 12.406 0 0 0-8.946 3.796" stroke="#9BAFCC" stroke-width="4" stroke-linecap="round" stroke-linejoin="round"/>
    <path d="M32.906 35.84 15.844 53.75l10.539 2.444-10.56 19.566 26.309-24.44-9.884-2.292 11.208-10.741-10.55-2.447z" fill="#FFBE31"/>
</svg>
