<svg width="80" height="80" viewBox="0 0 80 80" fill="none" xmlns="http://www.w3.org/2000/svg">
    <rect width="80" height="80" rx="8" fill="#fff"/>
    <path fill-rule="evenodd" clip-rule="evenodd" d="m33.421 67.022-3.347-5.656-3.347 5.656c-2.317 3.914-1.51 6.315.296 7.33.857.488 1.941.728 3.051.728s2.104-.222 2.948-.669l.099-.06c1.792-1.008 2.6-3.37.368-7.216l-.065-.11-.003-.003zM54.302 67.022l-3.347-5.656-3.347 5.656c-2.317 3.914-1.51 6.315.296 7.33.856.488 1.94.728 3.051.728 1.11 0 2.103-.222 2.947-.669l.1-.06c1.792-1.008 2.6-3.37.368-7.216l-.065-.11-.003-.003zM23.12 50.657 19.771 45l-3.346 5.657c-2.318 3.913-1.51 6.315.295 7.328.857.489 1.941.73 3.051.73s2.104-.223 2.948-.67l.099-.06c1.792-1.008 2.6-3.37.368-7.216l-.065-.11-.003-.002zM43.258 50.657 39.911 45l-3.347 5.657c-2.317 3.913-1.51 6.315.295 7.328.858.489 1.942.73 3.052.73s2.103-.223 2.947-.67l.1-.06c1.792-1.008 2.6-3.37.368-7.216l-.065-.11-.003-.002zM63.394 50.657 60.047 45l-3.346 5.657c-2.318 3.913-1.51 6.315.295 7.328.857.489 1.941.73 3.051.73s2.104-.223 2.948-.67l.099-.06c1.792-1.008 2.6-3.37.368-7.216l-.065-.11-.003-.002z" fill="#9BAFCC"/>
    <path fill-rule="evenodd" clip-rule="evenodd" d="M61.95 22.846c2.765.483 5.206 1.685 6.984 3.349C70.844 27.978 72 30.29 72 32.805c0 2.806-1.435 5.355-3.749 7.202C65.941 41.854 62.747 43 59.238 43H19.764c-3.511 0-6.702-1.148-9.015-2.993C8.437 38.16 7 35.61 7 32.805c0-1.915.673-3.712 1.84-5.25 1.103-1.455 2.644-2.674 4.474-3.536.097-3.834 2.084-7.3 5.246-9.826C21.802 11.602 26.285 10 31.235 10c2.327 0 4.547.354 6.587.999a19.154 19.154 0 0 1 5.225 2.55c.63-.167 1.282-.299 1.952-.4l.035-.003c.85-.122 1.713-.186 2.58-.186 3.75 0 7.166 1.14 9.741 3.009 2.423 1.758 4.097 4.166 4.594 6.879v-.002z" fill="#CBD1DD"/>
</svg>
