<svg width="80" height="80" viewBox="0 0 80 80" fill="none" xmlns="http://www.w3.org/2000/svg">
    <rect width="80" height="80" rx="8" fill="#fff"/>
    <path fill-rule="evenodd" clip-rule="evenodd" d="M33.343 16.333a10.336 10.336 0 0 0-7.33-3.038c-2.863 0-5.457 1.16-7.333 3.038a10.342 10.342 0 0 0-3.036 7.331 10.34 10.34 0 0 0 3.036 7.332 10.34 10.34 0 0 0 7.332 3.038 10.33 10.33 0 0 0 7.331-3.037 10.338 10.338 0 0 0 3.038-7.333c0-2.864-1.16-5.455-3.038-7.33zM41.93 13.628a.56.56 0 0 1 .764.207.557.557 0 0 1-.206.762l-4.023 2.322a.56.56 0 0 1-.558-.97l4.022-2.322v.001zm2.838 9.474a.562.562 0 1 1 0 1.124h-4.645a.56.56 0 1 1 0-1.124h4.645zm-2.282 9.63a.56.56 0 1 1-.558.97l-4.023-2.324a.56.56 0 0 1 .558-.971l4.023 2.323v.002zM35.7 39.929a.56.56 0 0 1-.205.765.562.562 0 0 1-.765-.206l-2.323-4.023a.56.56 0 1 1 .97-.558l2.322 4.022zM25.102 4.562a.562.562 0 1 1 1.124 0v4.645a.562.562 0 1 1-1.124 0V4.562zm1.124 38.206a.562.562 0 1 1-1.124 0v-4.645a.562.562 0 1 1 1.124 0v4.645zm-9.629-2.28a.56.56 0 0 1-.97-.557l2.323-4.024a.56.56 0 1 1 .97.558l-2.324 4.023h.001zM9.398 33.7a.561.561 0 0 1-.558-.97l4.023-2.324a.561.561 0 0 1 .558.97l-4.023 2.324zm-2.836-9.475a.562.562 0 1 1 0-1.124h4.645a.562.562 0 1 1 0 1.124H6.562zm2.28-9.627a.56.56 0 1 1 .557-.971l4.022 2.322a.56.56 0 1 1-.558.97L8.84 14.6h.002zM15.628 7.4a.56.56 0 1 1 .97-.558l2.323 4.022a.56.56 0 0 1-.971.557l-2.323-4.023.001.002zm19.102-.558a.56.56 0 1 1 .971.556l-2.321 4.023a.56.56 0 0 1-.971-.557l2.323-4.022h-.002z" fill="#FFBE31"/>
    <path fill-rule="evenodd" clip-rule="evenodd" d="m36.372 67.964-3.338-5.642-3.338 5.642c-2.311 3.903-1.506 6.298.294 7.309.855.487 1.937.727 3.044.727 1.108 0 2.098-.222 2.94-.667l.098-.06c1.788-1.006 2.593-3.361.368-7.197l-.065-.11-.003-.002zM57.197 67.964l-3.338-5.642-3.338 5.642c-2.311 3.903-1.506 6.298.295 7.309.854.487 1.936.727 3.043.727 1.108 0 2.098-.222 2.94-.667l.099-.06c1.787-1.006 2.592-3.361.367-7.197l-.065-.11-.003-.002zM26.098 54.641 22.76 49l-3.338 5.641c-2.312 3.904-1.506 6.299.294 7.31.855.487 1.936.727 3.044.727 1.107 0 2.097-.222 2.939-.668l.099-.06c1.788-1.005 2.593-3.36.367-7.197l-.065-.109-.002-.003zM46.183 54.641 42.845 49l-3.338 5.641c-2.311 3.904-1.506 6.299.294 7.31.855.487 1.936.727 3.044.727 1.107 0 2.097-.222 2.939-.668l.099-.06c1.787-1.005 2.593-3.36.367-7.197l-.065-.109-.002-.003zM66.265 54.641 62.927 49l-3.338 5.641c-2.311 3.904-1.506 6.299.294 7.31.855.487 1.937.727 3.044.727s2.098-.222 2.94-.668l.098-.06c1.788-1.005 2.593-3.36.368-7.197l-.066-.109-.002-.003z" fill="#9BAFCC"/>
    <path fill-rule="evenodd" clip-rule="evenodd" d="M64.003 32.658c2.53.433 4.761 1.512 6.388 3.004 1.746 1.6 2.803 3.676 2.803 5.932 0 2.518-1.312 4.805-3.427 6.462-2.114 1.658-5.034 2.686-8.243 2.686H25.426c-3.21 0-6.129-1.03-8.244-2.686-2.114-1.657-3.428-3.944-3.428-6.462 0-1.718.615-3.33 1.682-4.71 1.009-1.306 2.419-2.4 4.092-3.174.088-3.44 1.905-6.55 4.797-8.817 2.965-2.325 7.064-3.762 11.591-3.762 2.128 0 4.158.317 6.024.896a17.654 17.654 0 0 1 4.778 2.289 16.54 16.54 0 0 1 1.784-.359l.033-.003a16.95 16.95 0 0 1 2.359-.167c3.43 0 6.553 1.023 8.908 2.7 2.216 1.578 3.747 3.738 4.201 6.172v-.001z" fill="#CBD1DD"/>
</svg>
