<svg width="42" height="42" viewBox="0 0 42 42" fill="none" xmlns="http://www.w3.org/2000/svg">
    <path d="M21 0c11.598 0 21 9.402 21 21s-9.402 21-21 21S0 32.598 0 21 9.402 0 21 0zm-.168 4.368C11.739 4.368 4.368 11.814 4.368 21c0 9.186 7.371 16.632 16.464 16.632 9.093 0 16.464-7.446 16.464-16.632 0-9.186-7.371-16.632-16.464-16.632z" fill="#fff"/>
    <path d="M21 0c11.598 0 21 9.402 21 21s-9.402 21-21 21S0 32.598 0 21 9.402 0 21 0zm-.168 4.368C11.739 4.368 4.368 11.814 4.368 21c0 9.186 7.371 16.632 16.464 16.632 9.093 0 16.464-7.446 16.464-16.632 0-9.186-7.371-16.632-16.464-16.632z" fill="#fff"/>
    <path d="M17.933 26.09c-3.202-2.25-8.345-2.33-8.345-2.33l18.274-11.798-5.33 20.896s-1.398-4.518-4.6-6.768z" fill="#fff"/>
</svg>
